<svg xmlns="http://www.w3.org/2000/svg" viewBox="0 0 478.94 541.68"><defs><style>.cls-1{fill:#fff;}</style></defs><g id="Layer_2" data-name="Layer 2"><g id="Layer_1-2" data-name="Layer 1"><path class="cls-1" d="M0,541.68c1.21-10.07,2.19-20.17,3.68-30.2C9.11,474.83,22,440.38,35.13,406c3.48-9.08,6.61-18.3,10-27.43a7.06,7.06,0,0,0-.35-5.92A123.56,123.56,0,0,1,32.6,323.61,94.74,94.74,0,0,1,43,276.87c.15-.29.32-.58.49-.87,1.28-2.13,3.16-2.85,5-1.94S51,277,50,279.41c-2,4.57-4.25,9.06-5.81,13.77-6.54,19.84-5,39.58.54,59.44,5,17.86,15.79,31.91,28.18,45a158.43,158.43,0,0,0,41.86,31.63A14.09,14.09,0,0,1,122,438a74.45,74.45,0,0,0,65.25,51.71c37.72,3,70.88-22.92,78.67-58.94,7.35-34.05-11-69.83-43.47-83.7a74.36,74.36,0,0,0-85.57,19.46c-4.61,5.27-8.72,5.9-14.41,2a166.19,166.19,0,0,1-61.82-76.86,9.22,9.22,0,0,1-.76-3.36c.13-13.4,0-26.82.61-40.2a424,424,0,0,1,10.62-75.52A437.22,437.22,0,0,1,140.79,17.36a68.82,68.82,0,0,1,8.75-9.87c12.86-12.31,31.05-8.36,40,4a258.05,258.05,0,0,1,15.3,23.66,183.68,183.68,0,0,1,19.9,53.07c.41,2,1.06,2.34,3,2,10.28-1.63,20.6-3.45,31-1.76,7,1.13,13.83,2.81,20.7,4.39,2.62.6,4.49.08,5.12-2,.56-1.84-.56-3.59-3.1-4.31-4.32-1.22-8.69-2.27-13-3.4-.54-.14-1.08-.3-1.86-.52.3-1,.5-1.87.81-2.69a223.57,223.57,0,0,1,30.92-56.26c7.85-10.38,23.22-10.19,31.22.39,9.56,12.64,16.52,26.71,22.3,41.42a232.66,232.66,0,0,1,13.54,51.51,28.41,28.41,0,0,0,3,8.91,262.43,262.43,0,0,1,26.07,72.79c.85,4.41,2.52,6,6.81,6.88a113,113,0,0,1,28.35,10.12c20.11,10.19,29.18,26.6,28.1,48.92a151.1,151.1,0,0,1-9.57,47.23A146.75,146.75,0,0,1,434.39,339c-.7,1.07-1.27,1.92-2.93,1.6-25-4.84-46,9.54-55.95,28.15-12.2,22.94-8.95,52,8.45,70.47,13.91,14.78,31,19.66,50.75,14.69.71-.18,1.43-.34,2.45-.58,1.36,5.15,2.95,10.14,4,15.24q5.24,25.9,10.13,51.89c1.32,7,2.28,14.13,3.4,21.19ZM401.16,287.52c1.1-.52,2-.83,2.74-1.3,3.27-2,6.59-3.85,9.73-6,2.18-1.5,2.48-3.53,1.19-5.11s-3.06-1.54-5.11-.1c-1.22.87-2.41,1.78-3.66,2.61-11.6,7.68-23.1,6.59-33-3.09-1.79-1.74-3.62-2-5-.73s-1.59,3.52.39,5.2c3,2.57,6.38,4.73,9.47,7.21a5.26,5.26,0,0,1,2,3,19.8,19.8,0,0,1-3.48,14.19c-1.87,2.67-3.17,5.47-2.16,8.86,1.89,6.39,9.86,11.15,16.38,9.76,7.08-1.52,12.69-8,14-16.16C405.57,299.44,404.17,293.46,401.16,287.52Zm11-59.62c-2.4.22-4.8.41-7.2.64A24,24,0,0,0,391.31,234a12.69,12.69,0,0,0-2,17.68c9.53,12.73,30.35,11.23,37.81-2.74,3.59-6.71,1.91-13.66-4.35-18A16.47,16.47,0,0,0,412.17,227.9ZM260.3,215.39c7.16.06,12.86-4.06,14.32-11a33.74,33.74,0,0,0,.48-10.84c-1.09-8.9-8.16-17.06-15.83-18.64-5.5-1.13-10.47.21-14.31,4.45-3.68,4.08-4.16,8.82-2.44,14a79.83,79.83,0,0,1,2.34,9.16C246.44,210.26,252.41,215.33,260.3,215.39Zm111.83-26.25c-.08-7.49-2.67-13-7.57-17.35a13.36,13.36,0,0,0-15.35-1.48,11.19,11.19,0,0,0-5.32,12.39c.75,3.4,1.52,6.79,2.26,10.19a13.31,13.31,0,0,0,12.66,10.42c6.17.13,10.89-3.47,12.5-9.65C371.76,191.91,372,190.08,372.13,189.14Z"/><path class="cls-1" d="M478.94,391.85c-.16,22-6,37.79-18.7,50.68-3.4,3.44-7.62,6.12-11.62,8.92a5.14,5.14,0,0,1-4,.61,3.84,3.84,0,0,1-2.22-2.86,4.75,4.75,0,0,1,2-3.57A49.16,49.16,0,0,0,461,430.44c12.64-17.61,15.93-47.16-.65-68.4-4.31-5.53-8.74-10.9-14.77-14.72-2.55-1.61-3.06-3.72-1.67-5.63s3.44-2.06,5.72-.36C467.92,354.91,478.61,372.57,478.94,391.85Z"/><path class="cls-1" d="M250.26,420.16c-.27,3.56-.51,7.12-.83,10.67-.24,2.57-1.83,4.11-3.92,3.95s-3.31-1.84-3.29-4.46c0-6.63.7-13.35-.14-19.87-1.83-14.35-8.43-26.13-20.91-34.12-2.29-1.47-2.93-3.31-1.84-5.2s3.26-2.46,5.61-1c12,7.46,19.39,18.31,22.84,31.79,1.52,5.9,2,12.08,2.92,18.13Z"/><path class="cls-1" d="M457.42,399.35c-.27,3.15-.44,5.56-.68,7.95s-1.93,4.1-4,3.89-3.16-1.75-3.22-4.29c-.11-5.21.28-10.52-.56-15.62A28.93,28.93,0,0,0,435.68,371c-2.18-1.4-2.77-3.46-1.65-5.29s3.33-2.24,5.51-.85c9.21,5.9,14.52,14.47,16.66,25.05C456.87,393.26,457.08,396.68,457.42,399.35Z"/><path class="cls-1" d="M250.3,182.27a3.82,3.82,0,0,1,3.88,3.7,3.93,3.93,0,0,1-3.88,4,3.83,3.83,0,0,1-3.71-3.88A3.72,3.72,0,0,1,250.3,182.27Z"/><path class="cls-1" d="M351.09,182.48a3.23,3.23,0,0,1-3.24-3.12,3.17,3.17,0,0,1,3.26-3.3,3,3,0,0,1,3.09,3.21A3.11,3.11,0,0,1,351.09,182.48Z"/></g></g></svg>