<svg width="251" height="234" viewBox="0 0 251 234" fill="none" xmlns="http://www.w3.org/2000/svg">
<rect y="29.4117" width="240.753" height="92.8795" rx="30" transform="rotate(-7.01709 0 29.4117)" fill="#E9E9FF"/>
<path d="M56.054 85.5441L52.3157 55.1733L57.4371 54.5429L61.1753 84.9137L56.054 85.5441ZM42.2764 59.0689L41.7047 54.4239L67.5099 51.2476L68.0817 55.8926L42.2764 59.0689ZM82.7237 82.8659C80.7123 83.1135 78.8074 82.918 77.0093 82.2796C75.2376 81.6379 73.748 80.5585 72.5402 79.0413C71.3557 77.4944 70.6201 75.5564 70.3334 73.2273L69.9669 70.2498C69.6803 67.9207 69.9256 65.8754 70.7029 64.1139C71.5066 62.3492 72.6917 60.954 74.2581 59.9283C75.8478 58.8728 77.6483 58.2213 79.6598 57.9737C81.6713 57.7261 83.5629 57.9232 85.3346 58.5649C87.1294 59.1769 88.6307 60.2414 89.8385 61.7586C91.0462 63.2758 91.7934 65.1989 92.0801 67.528L92.4466 70.5055C92.7332 72.8346 92.4763 74.8947 91.6758 76.6859C90.8721 78.4507 89.6754 79.8608 88.0857 80.9162C86.5226 81.9684 84.7352 82.6183 82.7237 82.8659ZM82.152 78.2209C83.2371 78.0874 84.2003 77.727 85.0416 77.1398C85.8796 76.5262 86.5029 75.6972 86.9117 74.6527C87.347 73.605 87.4799 72.393 87.3105 71.0168L86.9783 68.3171C86.8089 66.9409 86.386 65.7973 85.7096 64.8864C85.0598 63.9723 84.2556 63.3324 83.2971 62.9668C82.3385 62.6011 81.3167 62.4851 80.2316 62.6187C79.1464 62.7522 78.1832 63.1126 77.342 63.6998C76.5008 64.2869 75.8757 65.1027 75.4669 66.1472C75.0581 67.1916 74.9384 68.402 75.1078 69.7782L75.4401 72.4779C75.6128 73.8806 76.0241 75.039 76.6739 75.9532C77.3205 76.8408 78.1247 77.4807 79.0865 77.8728C80.045 78.2385 81.0669 78.3545 82.152 78.2209ZM99.138 63.8784L96.9977 46.4896L102.04 45.869L103.642 58.8908L120.317 56.8384L118.714 43.8166L123.795 43.1912L125.936 60.5799L99.138 63.8784ZM100.96 55.1101L100.418 50.7033L121.499 48.1085L122.041 52.5153L100.96 55.1101ZM96.1386 73.2349L95.5717 68.6297L130.508 64.3294L131.075 68.9347L96.1386 73.2349ZM112.283 81.2829L110.651 68.023L115.732 67.3975L117.364 80.6574L112.283 81.2829ZM159.946 57.8446L157.464 37.6768L162.545 37.0513L165.028 57.2191L159.946 57.8446ZM150.162 76.5802C148.415 76.7952 146.813 76.6566 145.355 76.1643C143.927 75.6953 142.756 74.9125 141.842 73.8159C140.957 72.7426 140.419 71.4252 140.227 69.8636C140.038 68.3285 140.24 66.9199 140.835 65.6377C141.456 64.3522 142.402 63.3087 143.674 62.5074C144.969 61.6763 146.489 61.1533 148.236 60.9383L156.653 59.9023C158.4 59.6873 160.002 59.8259 161.46 60.3182C162.914 60.784 164.085 61.5668 164.973 62.6666C165.887 63.7631 166.438 65.0789 166.627 66.614C166.82 68.1756 166.604 69.5859 165.979 70.8449C165.385 72.1271 164.439 73.1705 163.141 73.9751C161.872 74.8029 160.351 75.326 158.578 75.5443L150.162 76.5802ZM157.306 71.1064C158.789 70.9239 159.889 70.4795 160.608 69.773C161.354 69.0633 161.665 68.2056 161.541 67.1998C161.417 66.1941 160.909 65.4506 160.017 64.9693C159.148 64.4583 157.972 64.294 156.49 64.4764L149.503 65.3365C148.021 65.5189 146.92 65.9633 146.201 66.6698C145.479 67.3498 145.18 68.1927 145.303 69.1984C145.43 70.2306 145.927 70.989 146.793 71.4736C147.661 71.9846 148.837 72.1489 150.319 71.9664L157.306 71.1064ZM132.674 57.6146C135.671 55.553 137.775 53.5476 138.986 51.5984C140.194 49.6227 140.661 47.5233 140.387 45.3L140.177 43.5929L145.1 42.987L145.31 44.6941C145.714 47.976 145.128 50.9633 143.552 53.656C141.975 56.3488 139.311 58.9336 135.559 61.4105L132.674 57.6146ZM153.708 58.5721L140.969 52.644L143.005 48.5646L155.657 54.1006L153.708 58.5721ZM132.833 46.7941L132.286 42.3476L152.533 39.8555L153.08 44.3019L132.833 46.7941ZM152.424 50.428L151.891 46.1006L160.982 44.9816L161.515 49.309L152.424 50.428ZM197.564 70.3425L193 33.2624L198.082 32.6369L202.646 69.717L197.564 70.3425ZM198.712 50.8563L198.146 46.2511L205.093 45.3959L205.66 50.0012L198.712 50.8563ZM170.589 65.3204C173.301 61.6011 175.146 57.9216 176.122 54.2818C177.124 50.6387 177.365 46.6998 176.843 42.4651L176.223 37.4231L181.185 36.8123L181.806 41.8543C182.392 46.6183 182.106 51.1674 180.947 55.5015C179.784 59.8091 177.683 64.0173 174.642 68.1263L170.589 65.3204ZM190.002 65.8729L177.552 53.4609L181.012 49.8109L193.467 62.2626L190.002 65.8729Z" fill="#211ED9"/>
<rect x="103" y="95.6889" width="48.8839" height="41.5513" rx="12" transform="rotate(-9.61352 103 95.6889)" fill="#A5A5A5"/>
<path d="M124.362 121.317L127.178 104.288L129.84 103.837L126.965 120.876L124.362 121.317ZM123.613 121.444L115.267 106.305L117.929 105.854L126.215 121.003L123.613 121.444ZM133.94 114.583C134.495 115.463 135.204 116.093 136.066 116.474C136.928 116.856 137.886 116.957 138.937 116.779C139.989 116.601 140.785 116.27 141.325 115.787C141.863 115.29 142.072 114.686 141.951 113.976C141.845 113.345 141.563 112.879 141.106 112.578C140.662 112.275 140.014 112.08 139.161 111.995L136.685 111.745C135.336 111.608 134.194 111.254 133.259 110.682C132.324 110.11 131.748 109.187 131.532 107.911C131.376 106.991 131.477 106.149 131.835 105.385C132.205 104.619 132.78 103.981 133.559 103.47C134.338 102.96 135.253 102.616 136.305 102.437C137.751 102.192 139.062 102.349 140.239 102.907C141.413 103.452 142.325 104.244 142.974 105.284L141.025 106.709C140.508 105.972 139.88 105.422 139.143 105.06C138.419 104.696 137.603 104.591 136.696 104.745C135.736 104.907 135.02 105.231 134.548 105.717C134.089 106.2 133.919 106.79 134.037 107.487C134.146 108.131 134.44 108.589 134.918 108.859C135.397 109.13 136.048 109.303 136.873 109.38L139.287 109.62C140.622 109.759 141.759 110.128 142.699 110.726C143.652 111.322 144.238 112.264 144.456 113.552C144.614 114.486 144.488 115.339 144.078 116.111C143.681 116.882 143.066 117.52 142.232 118.027C141.4 118.546 140.432 118.899 139.328 119.086C137.724 119.358 136.281 119.224 135 118.684C133.718 118.143 132.709 117.253 131.971 116.012L133.94 114.583Z" fill="white"/>
<rect x="44.6842" y="113.348" width="188.203" height="92.8795" rx="30" transform="rotate(8.8245 44.6842 113.348)" fill="#FFE8F6"/>
<path d="M75.2349 167.273L75.8976 163.004L110.681 168.404L110.018 172.673L75.2349 167.273ZM85.6987 185.656C83.7751 185.357 82.1468 184.807 80.8138 184.007C79.5072 183.21 78.5668 182.228 77.9926 181.059C77.4144 179.917 77.2275 178.687 77.432 177.369C77.6366 176.052 78.1875 174.936 79.0849 174.023C79.9823 173.11 81.1743 172.472 82.6609 172.109C84.1779 171.724 85.8982 171.681 87.8219 171.979L96.5968 173.342C98.5204 173.64 100.133 174.201 101.436 175.024C102.769 175.825 103.725 176.796 104.303 177.938C104.907 179.085 105.108 180.317 104.903 181.634C104.698 182.952 104.147 184.067 103.25 184.98C102.349 185.92 101.141 186.569 99.6285 186.928C98.1155 187.286 96.3972 187.317 94.4736 187.018L85.6987 185.656ZM94.2395 182.529C96.005 182.803 97.3441 182.781 98.2569 182.464C99.196 182.151 99.727 181.6 99.8497 180.809C99.9724 180.019 99.6449 179.347 98.8671 178.795C98.0893 178.242 96.8045 177.827 95.0127 177.548L88.0955 176.475C86.3036 176.196 84.9402 176.201 84.0052 176.487C83.0965 176.778 82.5808 177.319 82.458 178.109C82.3353 178.9 82.6608 179.584 83.4345 180.163C84.2345 180.746 85.5305 181.177 87.3223 181.455L94.2395 182.529ZM90.3976 167.643L91.5573 160.173L96.6167 160.958L95.457 168.429L90.3976 167.643ZM108.377 151.693L107.733 155.843L87.2188 152.658L86.4763 157.441L107.386 160.687L106.735 164.877L80.7664 160.845L82.8037 147.722L108.377 151.693ZM139.802 176.446L142.919 156.367L147.978 157.152L144.861 177.232L139.802 176.446ZM114.711 170.932L117.343 153.975L136 156.871L133.367 173.828L114.711 170.932ZM120.305 167.226L129.12 168.595L130.365 160.571L121.551 159.203L120.305 167.226ZM133.373 163.102L133.998 159.071L144.868 160.758L144.242 164.79L133.373 163.102ZM132.237 170.415L132.863 166.383L143.733 168.07L143.107 172.102L132.237 170.415ZM125.274 191.8C123.535 191.53 122.045 190.961 120.803 190.093C119.557 189.252 118.644 188.18 118.064 186.875C117.507 185.601 117.348 184.187 117.59 182.632C117.827 181.104 118.407 179.804 119.328 178.733C120.277 177.666 121.472 176.92 122.914 176.496C124.36 176.046 125.953 175.956 127.692 176.226L136.111 177.533C137.85 177.803 139.341 178.372 140.582 179.239C141.854 180.084 142.767 181.157 143.321 182.458C143.901 183.762 144.073 185.178 143.835 186.707C143.594 188.261 143.001 189.559 142.057 190.6C141.135 191.671 139.94 192.417 138.471 192.836C137.025 193.287 135.433 193.377 133.693 193.107L125.274 191.8ZM133.642 188.484C135.144 188.717 136.337 188.592 137.222 188.109C138.102 187.652 138.623 186.909 138.782 185.882C138.938 184.88 138.665 184.028 137.964 183.326C137.268 182.597 136.169 182.116 134.667 181.883L127.75 180.809C126.274 180.58 125.081 180.705 124.17 181.184C123.289 181.641 122.771 182.371 122.616 183.372C122.46 184.373 122.731 185.238 123.427 185.967C124.15 186.7 125.249 187.181 126.725 187.41L133.642 188.484ZM172.579 198.739L178.311 161.821L183.37 162.606L177.639 199.524L172.579 198.739ZM179.003 180.306L179.715 175.721L186.632 176.795L185.92 181.38L179.003 180.306ZM147.999 186.544C151.624 183.706 154.403 180.67 156.335 177.435C158.294 174.203 159.601 170.48 160.255 166.264L161.035 161.244L165.976 162.011L165.196 167.031C164.46 171.774 162.943 176.072 160.644 179.925C158.35 183.752 155.18 187.226 151.133 190.349L147.999 186.544ZM166.524 192.374L157.936 177.035L162.261 174.468L170.843 189.847L166.524 192.374Z" fill="#E83CA5"/>
</svg>
